<mxfile host="app.diagrams.net" modified="2023-05-27T23:01:28.349Z" agent="Mozilla/5.0 (Windows NT 10.0; Win64; x64) AppleWebKit/537.36 (KHTML, like Gecko) Chrome/113.0.0.0 Safari/537.36" etag="2lX3Vt0cI7Z3qrkvHKdP" version="21.3.4" type="github">
  <diagram name="Trang-1" id="-QQUHgAzRnZDLa1LdXyL">
    <mxGraphModel dx="1052" dy="581" grid="1" gridSize="10" guides="1" tooltips="1" connect="1" arrows="1" fold="1" page="1" pageScale="1" pageWidth="850" pageHeight="1100" math="0" shadow="0">
      <root>
        <mxCell id="0" />
        <mxCell id="1" parent="0" />
        <mxCell id="GWu7DVNyPCz3MSfa-Y67-1" value="" style="group" parent="1" vertex="1" connectable="0">
          <mxGeometry x="180" y="59" width="64.44" height="90" as="geometry" />
        </mxCell>
        <mxCell id="GWu7DVNyPCz3MSfa-Y67-2" value="" style="group" parent="GWu7DVNyPCz3MSfa-Y67-1" vertex="1" connectable="0">
          <mxGeometry width="64.44" height="90" as="geometry" />
        </mxCell>
        <mxCell id="GWu7DVNyPCz3MSfa-Y67-3" value="" style="shape=image;verticalLabelPosition=bottom;verticalAlign=top;imageAspect=0;aspect=fixed;image=data:image/png,iVBORw0KGgoAAAANSUhEUgAAAcIAAAGjCAYAAAC/sBW6AAAAAXNSR0IArs4c6QAAAARnQU1BAACxjwv8YQUAAAAJcEhZcwAACxMAAAsTAQCanBgAABofSURBVHhe7d0HlN5lnejx30wmk957T4AUAgmhiQjSdrFR1KsUYRcVVyxrWSwIcs/Rswh6ZW2IZe9VEMGr7gVUdGUtSBMEZBGUZhAIJQVII41Mv+//nQdNIAnJZCbM+38+H8+c93medybnIHn5zr/XdVQEAGSqPr0CQJaEEICsCSEAWRNCALImhABkTQgByJoQApA1IQQga0IIQNaEEICsCSEAWRNCALImhABkTQgByJoQApA1IQQga0IIQNaEEICsCSEAWRNCALImhABkTQgByJoQApA1IQQga0IIQNaEEICsCSEAWRNCALImhABkTQgByJoQApA1IQQga0IIQNaEEICsCSEAWRNCALImhABkTQgByJoQApA1IQQga0IIQNaEEICsCSEAWRNCALImhABkTQgByJoQApA1IQQga0IIQNaEEICsCSEAWRNCALImhABkTQgByJoQApA1IQQga0IIQNaEEICsCSEAWRNCALImhABkTQgByJoQApA1IQQga0IIQNaEEICsCSEAWRNCALImhABkTQgByJoQApA1IQQga0IIQNaEEICsCSEAWRNCALImhABkTQgByJoQApC1uo6KNIasLFv2dFx33c1x/31/joULH46nnnomWlvb4rnnNsaoUSNi3LgxMX782Ji/z9zYd995MXfurGhoaEg/DZSFEJKdO+74Q3zrW9+L399xV+zI3/4BA/rH4Ue8Ko455ug4+OD9RRFKQgjJRrHFd/5nvhQ33XRbWum6kSOHx7HHvSZOO+2tMXr06LQK1CIhJAu33vr7+OQ5F8Tq1c+mle7Rt29DvOlNr4+3v+OkmDx5YnWtubk1li5dGitWrIrVq56NlZWvNWvWxNo166L4sK0pXtvbq99bV19f+TP6VLY2B1TnI0YMq+6OHTd2TEyYOC7GjBkV9ZXvAXqOEFJ6v/jF9XHO2edHe4pPTyhitddes+Ppp5dXvp7ZoV2u29KnT59qEPeaOzvm7jUrXvGKfWPOnJlRV1eXvgPYWUJIqV3/m9/GRz/66R6N4K5WnMhzxBGHxBvf9LqYP39uWgW6SggprYceeiRO+8cPVM8CLauZs3aL97337XHkUYfaSoQuEkJKaePGpjj5pDNi0aIn0kq5nX32B+Pkt705zYAd4Sg8pfTNb16WTQRHjx4Zxx3/2jQDdpQQUjqPPfZEXP7d/5dm5fehD787Bg0aWB0/8vCiuOrKn1XHwPYRQkrnoq98K9ra2tKs3IozVY877jXV8bXXXhennvr+OO+8L1bPlAW2j2OElMojjzwWb/kf7+y2yxd6u0su/XL1zNGLL74kvnPpD9JqxJAhg+Mn11wWI0eOSCvA1tgipFS+e9l/ZBPB173+qJg4fny84+0f2iyChbVr18XXLr40zYBtEUJKY+PGjfHLX96QZuXW2NgYrzr4gDjl1PfGvfc+mFY3d/XVP4v771+YZsDWCCGlcf31t8SGDc+lWbkNHDggPvWpz8fKlavTyosVW8Zf+uI30wzYGiGkNP7zZ79Oo/Ir7pm6PbuAf//7u+NKZ5HCNgkhpbB8+fL43e/uTDM29fn/dXH1LjvAlgkhpXD1Vddmc8nEjmpubo6PfuRTsXLlqrQCbEoIqXnFY4+uutruv215/PHF8c/vPyfWrVufVoDnCSE17z9++ON4atkzacbWPPDAwnjf+86K1au3foIN5MgF9dS0VauejeOP+8fqdXNsn8lTJsbFF382pk+fklYgb7YIqVnF73Cf/vSFIriDnnxiSbzr9H+pnmAECCE17IrLr4wbb7g1zdgRK1asiku+vfndaCBXQkhN+tUvb4wvulh8p9x88+1pBHkTQmpOcQeZs8/+THXXKF335JOLo729Pc0gX0JITSnunfmJs85zzWA3KH6PyOWWdLAtQkhN+dznLqpeIE736Nu3bxpBvoSQmrF48dL44z33pxk7q7hxd79+jWkG+RJCasYjDz+WRnSHGTOmphHkTQipGa2OC3YrF9RDJyGkZowbNyaN6A7TbRFClRBSM/bYYzfHtLrRzJm7pRHkzb1GqSnF9YP/de1v0qz77DZ2VBw8a0ZMGz0i+tR3/n74XHNLtLS1RWtbe2xIZ6qufa4pOir/2/y9lvTexupr9b3W1mht74gNTc3RVBk3tbRW3+tNbrjx6hg+fHiaQb6EkJryu1vvrD5BoTs09OkTr99nTpz66gNizsRxabVnFMc31ze1xNqNTZXXytfG5mpAN1TGRVzXVYK5ofLeusp81frnYvmadbFi3YbKeEOsrLx2t6lTJ8U1P708zSBvQkhNKe6E8ta3vCseeWTnziA9fM/d46PHHhlTR49MK71XW+Wf+Zln18Vfnl4Rl990R9z+l50/e/a4418b5533iTSDvDlGSE2pr6+PD3zg9DTbcYP6NcZnTjomvvKOt9REBAvFrtrxI4bGobNnxL+/+6S49H2nxL7TJ6d3u2bBgr3SCLBFSM0p/soWjxG6664/pZXtM33MyPhqJYBTRo9IK7Wr+P/gunsXxtd++dt4tLKluKOuuvqS2H336WkGeRNCatKiRU/EiSe8e7tvtzZ7wtj432ecHMMG9k8r5dBe+fj+9M574xvX3RLLVq1Jq9s2ZMjguPGmH1e3rgG7RqlRxcXgZ575njTbtimjhsfX33VC6SJYqK+rizceOC+u+di74yPHHBEDt+Pykvn7zBVB2IRPAzXrbae8OQ4//OA027LGhj5x4T+8MUYNGZRWyqn45zztsFfEVR85PWZNHJtWt2zBPo4PwqaEkJo2b/7cNNqyj7zhyB6/NKI3mTB8aHzrjJNjj/FbvwvPPgv2TiOgIITUtMmTJ6TRix00c3qcfMh+aZaPoQP6x4WnHh/9+zaklb8pdonuvfecNAMKQkhNmzp1y5cRFJccfOzYI9MsPzPGjqruKn2h2XP2qD5+CfgbIaSmTZu25RCecsj+MXMbuwdzcNphB8aAxs0fvLvPS+xKhhwJITVt0KCBMfoFF8YXZ06+66hXplm+BvfvF6/bZ88067SPC+nhRYSQmjf1BVuFJx68bwy3+6/qqL1nplGnBU6UgRcRQmreprtH+/apj3849IA0Y/8ZU6KurnM8duzomDAhnzNoYXsJITVv2iYnzPz9vNkxuuTXDO6IYjfxlPRAY1uDsGVCSM3bdIvwrQctSCOeN3vKxOprcUcZ4MWEkJr3/DHC8cOHxn4zNj9eSOUXhXGjqq+2CGHLhJCaN3nyxOo9N4+eNzvqnj8gxl+NGDAgGhsbY86cPdIKsCkhpOb169cY40cMi6Pnz04rbGro0MExb96e0dDw4jvNAEJISRy4x7SYN2Xrt1vLWXEnmX0cH4StEkJK4cTDXmG36FZ01Ne7kB62QQgphb328LT1remor4v584UQtkYIKYeBA9OAFxo9flyMGDEszYAXEkLKYZCL6Ldm+szd0gjYEiGkHAYPTgNeaMREJxHBtggh5TB0aBqwmb59Iwa4ATlsixBSDsUxwv7904S/GtV5Vxlg64SQ8vAf/RcbufmzGoEXE0LKQwg319ERMXp0mgBbI4SUx7hxEX36pAkxYoTLSmA7CCHlUUSwiCGdJnY+fgnYNiGkXCZNSoPM1Vc+2hNcNgHbQwgpl+I4oUspOn8hKC6dAF6SEFI+u7mTSsyYkQbASxFCymf8+LxvuVZsDTpJBrabEFJOe+6ZBpkpThjaw5PoYUcIIeVUXD9XbBnmpoigW6rBDhFCymv27LyuKyxuPD5tWpoA20sIKa9iy2ivTB5IWzydf/78yifaRxp2lE8N5VZcVJ7DtYVz57psBLpICCm/IhJDhqRJCRWxnzIlTYAdJYSUX3Gc8IADynlJQfF0iVx2/0IPEULy0K9fxP77RzQ2poUSKHaF7refG43DThJC8lFcZH/ggeWI4bBhnVu5DQ1pAeiquo6KNIY8bNgQceedna+1qNgduu++7iUK3UQIyVNTU8Tdd0esWpUWasTkyZ3HBIvLJYBuIYTkq/ir/5e/RDz8cFroxYrrA4sAeswUdDshhOXLI+69N2LjxrTQyxTHA+fN67xzDNDthBAKbW0RjzzS+dVbPhLFiTDFvUOnTu3cIgR6hBDCptat69xdumxZWngZFNEr4lc8V7FMl3tALyWEsCXr13ceO1y6dNdtIRZbgEUAp08XQNiFhBC2pbW1c+twyZKIFSsqn5huPluz+PNGjep8ZNSECS6Oh5eBEML2Kk6mKWK4cmXnV3EdYlfCWNz3tLgWsAjgiBGuB4SXmRBCVxVbi8Uu1OKriGRLS+dJN8V6EchiV2exhVeErngkVHHWZ3F3G9cAQq8ihABkzTnZAGRNCAHImhACkDUhBCBrQghA1oQQgKwJIQBZE0IAsiaEAGRNCAHImhACkDX3GiUz7dG6fHG0LvlzdDQVT4+o/C5Y3/noo7o+DZ3z4p7YfTqfCFFXmVfXKzoqr3XFm8VNs9P7xUN069LPR33l/T711ccX1jd0Pk+wo/K9dZX1quLnn3/S/PM/v8mfX/0+T6KHXU4IyUQlgM88GS2LH4zYuDat9WJ/DWUluimkfw11oeEFoa6Et2HCzKgfMKS6Dmw/IaTk2qNtxZJofuK+SgDXpbVyKj7JDaMmRcOUvStBHJxWgZcihJRUPgF8oY6oiz6jJkffKXtFff9BaRXYGiGkZPIN4AsVQWwYMy0aJs+N+n4D0irwQkJIOXQUxwAf7zwG2LQ+LVLoqKuPhrEzomHSnKhv7J9WgecJIbVNALdbR12faBi/e/SdNDvq0lmtgBBSqwSwyzrqK0EcVwni5DlR9/zZqZAxIaS2tBfXARYBfKASwA1pkS6pRLBPZQuxccKsv16OATkSQmpDNYCLouWJSgBbNqZFukW6BrHv+JmVOKabA0BGhJDeTQB3nb79o2HirOg7djdBJCtCSO/U1hatKx4TwJdD44Dq8cOG0dPd8o0sCCG9S3trtDz1aPVeoNHSlBZ5WTQOrARxdjSMmVH5L0VxA1YoJyGkd2hriZanF0Xr4koAWwWwV+k/JPpOnBUNY6dWJrYQKR8h5OUlgDWjbkAliJPnVm/fBmUihLw8Wluj5ZlHBbAG1Q0aUb1LTcPIiWkFapsQsmu1NkfLsoejdelD1a1BalfdkFHVG3v3GTomrUBtEkJ2jdaWaHmqEsAlCwWwRIr/ehS3bWucvk/lvyZOqKE2CSE9rn3tqmh68GYBLLH6YeOicdZBbtlGTRJCelTriiej+aHbw7ZCBvoPjn57HuaRT9Qc50LTY9qefSaaHrpDBHOxcV003X9jtDc9lxagNgghPaJ11dJoevC3lb9gdjhkpWl9ND1wU7S3iCG1Qwjpdm3PPh3NC2+Luo72tEJWKluGzQ/cWvmL0JoWoHcTQrpV+/pV0fTnW0Uwcx0bVkfTI3elGfRuQki3aW/eGE0PViLY3pZWyFn7iieq14xCbyeEdI/KFmDzQ7d5UgSbaXnsnmjfsCbNoHcSQrpF8+P3RcfaFWkGneo6OqLZLlJ6OSFkp7VVAti6dGGaweY61lX+fjy9KM2g9xFCdk57ezQ/fKdrBdmmlsf+FO0tzWkGvYsQslNaiptnb1yXZrAVbc32GtBrucVaya1evSZuv+3uWLx4WbS0dPO9Pttbq7u8XCrB9uiIumgYN6Py63dDWul5ffv2jcmTx8dBr1wQw4YNTauwOSEsqebm1rjk2z+Iq668thJAFzaTt759G+KtJxwT7zz9xGhs3HUhpjYIYQk1NTXHWR+/IO65+4G0AhQWLJgbn/+3cyoxbEwr4BhhKX39a98VQdiCu+++v/L5uCLNoJMQlsySJcvip9dcl2bAC13zk19VPyfwPCEsmRtvuCPa2528AltTfD5uuvGONAMhLJ1Fjz6RRsDWLFr0ZBqBEJbOuvUb0gjYmrVr16cRCCEAmRNCALImhABkTQgByJoQApA1IQQga0IIQNaEEICsCSEAWRNCALImhABkTQgByJoQApA1IQQga0IIQNaEEICsCSEAWRNCALImhABkTQgByJoQApA1IQQga0IIQNaEEICsCSEAWRNC6CF9+vSJ0aNHxO67T62+FnOg96nrqEhjSuDcT14Yt/z2zjRjV+vfv1+8/vVHxKsPe0Xss2DPzeLX2toWf7zngbj5pjvi2mtviI0bm9I77GqHHHpAnH/Bx9OM3NkihG7yhmOOjO99/yvx4TNPj/323/tFW4ANDX2q68X7xfe9rhJM4OUnhLCTiuAVcTvrE++NUaNGpNVtK77v7HPeFx8/6z3Rt29DWgVeDkIIO6Guri7O/uT7481vfm1a2THHHHtUfP2b58eYMaPSCrCrCSHshBNPOjaOPvrQNOuamTOnx/d/+NU44z2nxKBBA9IqsKsIIXRRsXvznaefkGY7pzh+eMqpb6xuHU6aND6tAruCEEIXve3U46tniXaX1avXxrRpk+Ib/35+TJ8xOa0CPU0IoQuKY4OHH35QmnWPttbW+N2td8XQoYPjggvOqrwOSe8APUkIoQt232Nat5/gMmr0iLjssivjzw8+EhMnjYsPfPC09A7Qk4QQumDChLFp1L2K446f/tSXoqWlJf7+6FdXgwv0LCGELhgxYlgada8ihEuXPh0/uvoXUV9fFyec8Ib0DtBThBC64LnnNqZR93puw3PV12t+8uvq66sO2d89SqGHCSF0wYoVq9Koey1f3vnnPvnk0njiiaXVE2aKm3YDPUcIoQuKE1paWlrTrHsUN+V+6KFFaRbx+OOLq69jx42uvgI9QwihC9av31B9kkR3+sNd98a6devTrNjqXF19HTlyePUV6BlCCF101VXXplH3uOrKzf+8gQP7V183rO88bgj0DCGELrr1lv+Oe7ppq/APf7gvbrvtD2nWaczokdXXnjoeCXQSQtgJF3zm4li9ek2adc2qlc/GZ8//Wpp1Km7dNmfPPaK9vT0effSJtAr0BCGEnfDUU8vjk+d8Ptra2tLKjlmzZm2ce+6F8fTTK9JKp4MP3i/69WuMe+9duNOhBbZNCGEn3X/fQ3HFd3+UZtvv4Ycfj/e+59zqz2+qvr4+TnvHW6rjX//y5uor0HOEELrBFVf8KJYseao6Xrv2b2d+bslTy56JL/zb/4kz/unsWLK482c2VdxNZsaMKdVrCX/+8+vTKtBT6joq0pgSOPeTF8Ytv70zzdiVirvAnH/Bx6vH9b528XejsbExxowZGcOHD63u3nzmmZVx13//KRYufDT9xIu98pX7xgWfO6syqotzzv5c3H7b3Z1v0K0OOfSA6r8rKNgihG5SnEV62Xeuqt4S7Z8/cFo0bWyKr170nTjvXy+qvv7g+9dsM4LHHvd3cd75H6vuGr3k2z8UQdhFhBC60WXfubIavCKGHz7z9LjwC+fGrFkz0rtbNnvObvGFL/7P+NjHz6g+qf6Ky38U37vix+ldoKfZNVoydo32Dke/5tXxwQ+9o/qQ3UJxu7Q7br+n+mSJYjdpsbu0eJTTQQctiClTJ1a/59ln18ZXvnRJ/OY3t1bn9By7RtmUEJaMEPYeQ4YMilNOfVO84ZgjY9iwrT9tftWqZ+Pn/3l9/N/v/aR66zZ6nhCyKSEsGSHsfYpjfvPmzY699p5Vfd7g8yfPLF++snqd4H2Vr+IEG3YdIWRTQlgyQggvTQjZlJNlAMiaEAKQNSEEIGtCCEDWhBCArAkhAFkTQgCyJoQAZE0IAciaEAKQNSEEIGtCCEDWhBCArAkhAFkTQgCyJoQAZE0IAciaEAKQNSEEIGtCCEDWhBCArAkhAFkTQgCyJoQAZE0IAciaEAKQNSEEIGtCCEDWhBCArAkhAFkTQgCyJoQAZE0IAciaEAKQNSEEIGtCCEDWhBCArAkhAFkTQgCyJoQAZE0IAciaEAKQNSEEIGtCCEDWhBCArAkhAFkTQgCyJoQAZE0IAciaEAKQNSEsmfp6/0rhpficsCl/G0pm7NhRaQRszbhxo9MIIuo6KtKYGrJ27fq45ppfxS033xlLljwVq1evSe8AO2L48KExadK4OOTQA+O44/8uhgwZnN4hF0JYg6779S3x5S99uxpDoPsMGTIozvzoP8VRR70qrZADIawxV1/9X3HRly9NM6An/MuZ74o3vfk1aUbZOUZYQ+69d2FcfNFlaQb0lIu+cmncf99DaUbZCWEN+cbXL4/29vY0A3pK8Tn75jeuSDPKTghrxOInl8V9lS1CYNf44x8fjCVLlqUZZSaENaL4UAK71h/v+XMaUWZCWCNWrlydRsCusmLlqjSizISwRgwY0D+NgF3F5y4PQlgjJk+ZkEbArjJ16sQ0osyEsEYsWLBnDBw4IM2AnjZ48MCYP39umlFmQlgjGhsb4+S3HZdmQE87+W3HVz53DWlGmQlhDTnp5ONizp67pxnQU+bOnRknnnRMmlF2QlhD+vVrjAs+e1b1Qwr0jL32mhnnVz5nxV4Y8uBeozvgiMNOSiOA3ueGm36YRuwIW4QAZM0WIQBZs0UIQNaEEICsCSEAWRNCALImhABkTQgByJoQApA1IQQga0IIQNaEEICsCSEAWRNCALImhABkTQgByJoQApA1IQQga0IIQNaEEICsCSEAWRNCALImhABkTQgByJoQApA1IQQga0IIQNaEEICsCSEAWRNCALImhABkTQgByJoQApA1IQQga0IIQNaEEICsCSEAWRNCALImhABkTQgByJoQApA1IQQga0IIQNaEEICsCSEAWRNCALImhABkTQgByJoQApA1IQQga0IIQNaEEICsCSEAWRNCALImhABkTQgByJoQApA1IQQga0IIQNaEEICsCSEAWRNCALImhABkTQgByJoQApA1IQQga0IIQNaEEICsCSEAWRNCALImhABkTQgByJoQApA1IQQga0IIQNaEEICsCSEAWRNCALImhABkTQgByJoQApCxiP8P/Q7nuPnUAdoAAAAASUVORK5CYII=" parent="GWu7DVNyPCz3MSfa-Y67-2" vertex="1">
          <mxGeometry y="30" width="64.44" height="60" as="geometry" />
        </mxCell>
        <mxCell id="GWu7DVNyPCz3MSfa-Y67-4" value="Staff" style="text;html=1;strokeColor=none;fillColor=none;align=center;verticalAlign=middle;whiteSpace=wrap;rounded=0;" parent="GWu7DVNyPCz3MSfa-Y67-2" vertex="1">
          <mxGeometry y="10" width="60" height="30" as="geometry" />
        </mxCell>
        <mxCell id="GWu7DVNyPCz3MSfa-Y67-5" value="" style="group" parent="1" vertex="1" connectable="0">
          <mxGeometry x="137.22" y="168.48" width="150" height="21.52000000000001" as="geometry" />
        </mxCell>
        <mxCell id="GWu7DVNyPCz3MSfa-Y67-6" value="1" style="ellipse;whiteSpace=wrap;html=1;aspect=fixed;strokeColor=#d79b00;fillColor=#ffe6cc;" parent="GWu7DVNyPCz3MSfa-Y67-5" vertex="1">
          <mxGeometry width="20" height="20" as="geometry" />
        </mxCell>
        <mxCell id="GWu7DVNyPCz3MSfa-Y67-7" value="Create Conference Website" style="text;html=1;strokeColor=none;fillColor=none;align=center;verticalAlign=middle;whiteSpace=wrap;rounded=0;" parent="GWu7DVNyPCz3MSfa-Y67-5" vertex="1">
          <mxGeometry x="30" width="120" height="21.52" as="geometry" />
        </mxCell>
        <mxCell id="s9WUBPOVfU3_w5bNLyG0-1" value="" style="endArrow=classic;html=1;rounded=0;entryX=0;entryY=0.5;entryDx=0;entryDy=0;" edge="1" parent="1" target="s9WUBPOVfU3_w5bNLyG0-2">
          <mxGeometry width="50" height="50" relative="1" as="geometry">
            <mxPoint x="130" y="150" as="sourcePoint" />
            <mxPoint x="300" y="150" as="targetPoint" />
          </mxGeometry>
        </mxCell>
        <mxCell id="s9WUBPOVfU3_w5bNLyG0-2" value="" style="shape=image;verticalLabelPosition=bottom;verticalAlign=top;imageAspect=0;aspect=fixed;image=data:image/png,iVBORw0KGgoAAAANSUhEUgAAA6UAAAKwCAYAAABgTdnaAAAAAXNSR0IArs4c6QAAAARnQU1BAACxjwv8YQUAAAAJcEhZcwAACxMAAAsTAQCanBgAAFXGSURBVHhe7d0JvGRnXSf85+57p9OdrSGEIIuKbJPIq4MoDs6gKKOoozOOKzOv+ygjERcWQQEVlE1chwHHBZcZxwUBFZRFeA2QEEOIYQnZl053eu+736q6b/3PPZV0Ot19a72nqs73m8/JOc/pu1XdqlvnV/9nGdmsSwAAAFCA0XwPAAAAO04oBQAAoDBCKQAAAIURSgEAACiMUAoAAEBhhFIAAAAKI5QCAABQGKEUAACAwgilAAAAFEYoBQAAoDBCKQAAAIURSgEAACiMUAoAAEBhhFIAAAAKI5QCAABQGKEUAACAwgilAAAAFEYoBQAAoDBCKQAAAIURSgEAACiMUAoAAEBhhFIAAAAKI5QCAABQGKEUAACAwgilAAAAFEYoBQAAoDBCKQAAAIURSgEAACiMUAoAAEBhhFIAAAAKI5QCAABQGKEUAACAwgilAAAAFEYoBQAAoDBCKQAAAIURSgEAACiMUAoAAEBhhFIAAAAKI5QCAABQGKEUAACAwgilAAAAFEYoBQAAoDBCKQAAAIURSgEAACiMUAoAAEBhhFIAAAAKI5QCAABQGKEUAACAwgilAAAAFEYoBQAAoDBCKQAAAIURSgEAACiMUAoAAEBhhFIAAAAKI5QCAABQGKEUAACAwgilAAAAFEYoBQAAoDBCKQAAAIURSgEAACiMUAoAAEBhhFIAAAAKI5QCAABQGKEUAACAwgilAAAAFEYoBQAAoDBCKQAAAIURSgEAACiMUAoAAEBhhFIAAAAKI5QCAABQGKEUAACAwgilAAAAFEYoBQAAoDBCKQAAAIURSgEAACiMUAoAAEBhhFIAAAAKI5QCAABQmJHNuvwYHqZSqaS1tbVsv7GxkarVaoqHjIcNAACnGxkZybaxsbE0Pj6eJicnsy2O4WyEUh4mgufKykq2RRgFAIBORCidmZnJtgiscCqhlAdEGF1cXEzLy8v5GcooXihGR0fPuYXGPpztGAAol1qtlm1R2IhtfX09206NHLOzs2l+fl445QFCKZkIoydPnsxbDKt4uje608S+sZ3aBgDotkYvvNXV1Qe6+C4sLKS5ubn8IygzobTkojp67Nix7B0shs/ExEQWOE/dq2QCAEWJOUqiEBJzloQYb7p7925vjJecUFpiEUSPHDli0qIhEL/DCJzxh72xjxAKANCPomp6/Pjx7Bom3jDfs2dPdg1DOQmlJRXvTh09elQgHWCN2ewaIVQFFAAYJNFjL65Ho3oa3XnPP//8NDU1lf8rZSKUllA88Q8fPiyQDpgIndPT09kfayEUABgGMSlSVExjrGnYu3dvdp1DuQilJRPvSN1///0C6YCIANrYdMcFAIZVVEwjmMab7hdccIExpiUjlJZMVEhNatTfohoaa3jFHgCgDKJiGnOdRI++qJRGxZTyEEpLxLIv/Sv++DaCqG65AEAZndqjb9euXZaLKRGhtCTiSX7w4MG8RdHiadeoiEbXXEEUAGBrVt5YrjAmPrrwwgt14y0JobQkYgD58vJy3qIoET5nZ2ezMGqMKADAw0U33lgpIq6ZzjvvvPwsw0x5pgSiSiqQFiuqoTHN+cUXX5wWFhYEUgCAs5ifn896lcX1a1zHMvyE0hKIbhDsvOh2En9UL7roomxBaBMXAQBsL+baiDf0g+vYchBKS8CTeWfF2IcYnB9hNKqixkIAALQmuu4G17HlIJQOuUqlkm303sTERNZFN8JozBZn8iIAgPZEpTR6nbmWLQdXzUMuBonTOzHeIf5oxiLPsemiCwDQuXhzP7rxBmvsDz+hdMjFAsT0RvyhjCAa40WjSgoAQPcIpeUhlA453R26LwJoBNG9e/c+8McSAIDuaqxW4Hp2+AmlQ8402t3TCKNRHW3MCAcAQG80Qqnr2eEnlA65Wq2WH9GuGNMQCzcLowAAO6cxaWTM4cFwE0qHnCdxZ2Kd0QsvvPCBackBANgZjVCqyDL8hNIhF1Np05rGjLoRRmOdUUu7AAAUx/Xs8HO1DaeIsQuNGXUb4xgAAIDeEUohNzc3l1VHzagLAAA7Ryil9GJW3aiO7tq1Kz8DAADsFKGU0orxCY1ZdSOYAgAAO08opZQaExmZVRcAAIollFI6MaNuTGQ0NjaWnwEAAIoilFIajZl1Y+1RAACgPwilDL1YdzS66e7du9fYUQAA6DNCKUNtdHQ0C6MxoVEcAwAA/cVVOkMr1huN7roxqREAANCfhFKGTnTXnZubyyqkJjMCAID+JpQydM4///y0a9euvAUAAPQzoZShEVXR6K47MzOTnwEAAPqdUMpQiHGjEUjNrgsAAINFKGXgxXIve/bsMbsuAAAMIFfxDKyY0CjGjsZyLwAAwGAaqV/Yb+bHDKH9+/fnR8MnJjSanp7OWzuvVqul5eXltLq6mjY2NvKzKetCHD9XzAA8MjKSn+2e+J4rKyvZ92w8fWM8bXzPqBqPj49n57opbmN8z/X19VStVrNzje8ZY3hj+R0ACPH62KxOejnt1PehWI1r2X379mV7hpNQOuSGMZTGC0sE0iKDUIS0Y8eOPRAKzyQCaVRyIyh2QwTC+J6NUHg2EYa7NftwfK/4nvG9zybugwimUbHeqRf9uBCJbbsAXqlUsvDcizcHAHioeL2INzCbFa8f8ebm7t27W3r92InvE28Ax2tIs+K1Jl4Lhd/uE0rLQSgdcsMWSuOPfowf7UU1sFmLi4vpxIkTTQWdeHotLCxkWyciBB89ejRvbS8mfor7qRPxYnz48OGm34mO30l8z/gd9VIE5SNHjmSV4gsvvPCsk1vFxx08eDC7QIg1a4t8zAAMuwiJERbbEW+kxhuqzdiJ73P8+PEslLaqG6+9PJxQWg7ezmFgRKgoOlxEOGw2kIb4uJMnT7b0ju7pIhy2+gK8traW/ZztiiAaIbiVrlHt/JytagTS+F7xODhXAI5/i4+J29D4HAB6Y7tePOfSyt/nnfg+7b5mxzVCK6+bwIOEUgZChIudqMJtJ949bbUraHx8BMR2X6jic9vp0BAV3VPHurZiaWmprRAX3XzbeXe5GaeGy0bFfLtuUrFMUDx2GmG2k4sZAMqh3U6ErV4fAA/SfXfIDUP33eie2UwA6bUIWxFK29VK96SGCJX3339/2y90Mb4lxtC06r777mv7RTlCYHSr7aZGII37o9XuuBFEo+obnxthNj636Dc3OLf4fUfFwZsI3RfPH+Pe6IV4IzR6BrUj5l5odib9nfg+nVw7XXzxxZ5fXab7bjkIpUNu0ENpTGYUkxr1wx/4CEXRLbZd7Yw16eTFN8T9Fi+QrYjbGLe1XfEn5aKLLmo6NG6nk0DaEOEmxsfGPj63H6runFn8vg8dOiSQ9lA8j+KNIxfOdJNQukUo7T6htBw8a+hbEeL6JZCGTsckttOVtp3POVVc4Ld6cd/p7YyqbqdfoyF+/kaVs91AGk6tkMbPpitv/4qxXH43vRXPq151sweAdgil9KWokLY6RXyvxYVcJ9r5/E6/Z2j1axTxPc8mAkqMU43qa7xB0Un1NQJpo1IdwdRFeX/q1mOHc3M/A9BPhFL6Towh7acKaUOnP087n9+N+6DVr9GNiRq6NdlDrCsXP398vU4miwrxuY0xwfH14mvTf/xeei/e5HE/A9BP+uuqn9JrjPfrRhjrtk7HILZT5eukMhgifLX6c3f6PUM3vkZodLuNx0N04Y1ut+0G01iuJqqucZ/E1zzb+qYUqzGxWfSWiN9//O5t3dvifm3cvwDQL0x0NOQGaaKjCDKNANKPYpmUTtb+XFhYSPPz83mrORGiYoKedkU1JKrOrYjQd+DAgbzVuvj9tTq50naiu23cD/GztTMbc4xLjdlcBVKA3jDR0RYTHXWfiY7KwbOGvtAY79fPf8gj4EWoaVcsw9CqqGZ0EqDiBbhV8Tto5/MaWl32phnxhkXj8REV0wiZzVZMG4E0xNcQSAEA+otQSuEiaERY6LR7bK/Fz9dqpbMhqqTt3r743HY6NESIjhmM2xG3s50AHrexk0B7Lo0KafxcUUGOsLmdUwNpVEh1WQQA6D9CKYXrdFbVnRRhrdUJQuLj2w2zIYJldDdqJZjG/dlsV6gziXDZarffCIu9nqAqgmmEy0YwPdeSObGsSMzeGyLMCqQAvdPJ63grPVh24vt08jrWy9dAGGaeORQmQlYs+zJoYSGCV3RR3S4kxr/Hx7Ua7s4kvk7cV82IENuNsbmtfJ0IsTs1VrMRTOP+ONf3i58pwugFF1zQdsUYgObEG7DxWhWvGfHGYbNb9K5ppYfNTnyfdobbhF71FIIyMNHRkOvniY527dqVvbAMqqjSxYQLje6hp2q8aHY7cEf1r/E9Tx1TGU/jCF7xPVut5G4nvk9M8hRVx/j+DfE94/bFi/cg/x4B4HTxOhuT7DV7mRwV3HbDLOdmoqNyEEqHXL+G0ggxEUqHRQTUeCrFu7FRoduJ7jvxYhmBcSe/Z4TSRjCN7xkbAECvCKXloPsuOy4qesMUSEN0I42qYex3IhyGeFd2p79nhND4nrEJpAAAdINQyo6KINPs2EgAAGD4CaXsqF7PzgoAAAwW6YAdEeMtt5stFQAAKB+hlB0R63SalQ4AADidUErPxaQ4wzaxEQAA0B1CKT0V40dNbAQAAJyNUErPNMaRWjoEAAA4G6GUnolxpLEmKQAAwNkIpfREzLJrHCkAALAdoZSeOO+88/IjAACAsxNK6bqokFqPFAAAaIZQSlfFGNK5ubm8BQAAcG5CKV1lHCkAANAKoZSuiUA6Pj6etwAAALYnlNIVMYZUt10AAKBVQildYbZdAACgHUIpHVtYWDDbLgAA0BahlI5EGJ2fn89bAAAArRFKadvm5qbZdgEAgI4IpbRtZmYmTU5O5i0AAIDWCaW0LcaSAgAAdEIopS0xjtSapAAAQKeEUlo2OjpqTVIAAKArhFJaFmuSRjAFAADolGRBS2IJmOnp6bwFAADQGaGUlpjcCAAA6KaRzVhskqG1f//+/KhzsfzL3r1781Z/W1paSqurq3kLAGDwTU1NZZNNlknjWnbfvn3ZnuEklA65bobSPXv2ZH8MB8GhQ4fSxsZG3gIAGHwxjOqCCy7IW+UglJaDUDrkuhVKB6lKGqrVqlAKAAyVCKVjY2N5qxyE0nIQSodct0JpBNIIpgAAsFOE0nIw0RHbii67AikAANALQinbMuMuAADQK0Ip5xRjF2IDAADoBaGUcyrbtOMAAMDOEko5q5jdbXp6Om8BAAB0n1DKWc3NzeVHAAAAvSGUckYjIyNpZmYmbwEAAPSGUMoZRZV0dNTDAwAA6C2pgzOanZ3NjwAAAHpHKOVhpqamskmOAAAAek0o5WFUSQEAgJ0ilPIQMY7UMjAAAMBOEUp5CFVSAABgJwmlPGBzc9MyMAAAwI4SSnlAdNsdHx/PWwAAAL0nlPIAVVIAAGCnCaU8IJaCAQAA2ElCKZnouhsz7wIAAOwkKYSMZWAAAIAiCKWkkZERXXcBAIBCCKVkgVTXXQAAoAiSCGbdBQAACiOUYjwpAABQGKG05IwlBQAAiiSUlpxQCgAAFEkoLTmhFAAAKJJQWmLj4+PZBgAAUBShtMRUSQEAgKIJpSUmlAIAAEUTSktsYmIiPwIAACiGUFpSk5OTaXTUrx8AACiWVFJSEUoBAACKJpSWlFAKAAD0A6G0hDY3N40nBQAA+oJQWkLGkwIAAP1CMikhVVIAAKBfCKUlZDwpAADQL4TSElIpBQAA+oVQWkLj4+P5EQAAQLGE0pJRJQUAAPqJUFoyqqQAAEA/EUpLRqUUAADoJ0JpyaiUAgAA/UQoLZHNzU2VUgAAoK8IpSUyNjaWRkf9ygEAgP4hoZSIrrsAAEC/EUpLJCqlAAAA/UQoLRGhFAAA6DdCaYnovgsAAPQbobREVEoBAIB+I5SWiFAKAAD0G6G0RIRSAACg3wilJSGQAgAA/UgoLYnRUb9qAACg/0gqJSGUAgAA/UhSKQmhFAAA6EeSSkkIpQAAQD+SVEpCKAUAAPqRpFISQikAANCPJJWSEEoBAIB+JKmUhFAKAAD0I0mlJEZGRvIjAACA/iGUAgAAUBihtCRUSgEAgH4klAIAAFAYobQkVEoBAIB+JJSWhFAKAAD0I6EUAACAwgilJWGdUgAAoB9JKgAAABRGKAUAAKAwQikAAACFEUoBAAAojFAKAABAYYRSAAAACiOUAgAAUBihFAAAgMIIpQAAABRGKAUAAKAwQikAAACFEUoBAAAojFAKAABAYUY26/JjhtD+/fuz/b59+7I9D1epVNLa2lqq1Wr5mfIYGRlJ4+PjaXJyMo2Oeo8KAOgvrmXLQSgdcp7IZ1etVtPx48ezQFp2EUgXFhbS7OxsfgYAoHiuZctBaYRSiurooUOHBNJcVIkjoC8uLuZnAABgZwillFIEsDJ2193OiRMn0sbGRt4CAIDeE0opnfX19Wzj4WKM6cmTJ/MWAAD0nlBK6eiye24COwAAO0kopXR02z23mPvMfQQAwE4RSikdS59sz30EAMBOceVJ6cSanJyd+wcAgJ0klFI6U1NTaXx8PG9xuvn5+fwIAAB6TyillHbv3p3NNMtDzc7OZqEdAAB2ilBKKU1MTKS9e/eqmJ5iYWEhnXfeeXkLAAB2xshmTLXJ0Nq/f3+237dvX7bn4WKJmFgGpVqtlrJ6GgE9qqNjY2P5GQCA/uBathyE0iHniQwAwKByLVsOuu8CAABQGKEUAACAwgilAAAAFEYoBQAAoDBCKQAAAIURSgEAACiMUAoAAEBhhFIAAAAKI5QCAABQGKEUAACAwgilAAAAFEYoBQAAoDBCKQAAAIURSgEAACiMUAoAAEBhhFIAAAAKI5QCAABQGKEUAACAwgilAAAAFEYoBQAAoDAjm3X5MUNo//792X7fvn3ZnodbXV1N6+vryVMBHmpiYiJNT0+n0VHvXwJQDNey5SCUDjlP5LOLIHrs2LFUrVbzM8DpRkZG0q5du9Ls7Gx+BgB2jmvZcvD2N6UUgfTw4cMCKWwj3reMN2+WlpbyMwAA3SWUUkrHjx/Pj4DtRLX0xIkTqVKp5GcAALpHKKV0Ygypi2to3fLycn4EANA9QimlE113gdZ57gAAvSCUUjrm9oL2eO4AAL0glFI6lreA9njuAAC9YEmYIWca7YdrzLwLg+zYsRPp7rvuS/fccyDde+/BbCbppaXlND83my66eG964pc8Pj32sZflH90dCwsL2dIw1177qfTxj12fPvOZW9La2nratTCfrrjySen53/ycNFf//rTmn/6/T6T3vffD6ebP356mpybTJfsuSk992hPTs5/9jLR37+78owDKybVsOQilQ84T+cwilBofxyB7+9v+rB5kPpK3zixC6Y/+2HfXn/8X5mfaFzPwLi+tpZe+5Ffrf1cO5mcfavfuXenVv/ji9KQnPSE/05zbbrs7vffvPpS3Bs/FF1+YBfJWra6up1e/6tfSRz58TX7mocbHx9IL/uu3p+/8zufnZ3bOgQOH0l/+xd/lre09/gmPyUL0du666970nnd/IG9t7/LLH5W+9uu+Km8BZeRathyE0iHniXxmUVWyTimD7MP/eE36zd94R946u9nZmfRLr/3JdNFFe/Mz7dmzZ0/65Cc/k37qJ38xP3Nm09NT6Xfe+ovp0Y++ND+zvb/4879Lb37T2/PW4Ln44gvSn/6f38hbzXv5y15f/z1+PG+dWVSg3/DGl+etnfOOd/xleuvv/HHe2t4L//t/Sd/8LV+bt87u4x//5LaPoVN96394bvqxH/++vAWUkWvZcjBAiFIaGxtLe/furV9AT5u8hYG0d+/5+dG5LS+vZFXVdk1MTGTPlampqZjpKD97dqura+nVr/r1lp5X9957ID8aTAcPRs+L1paZeu97P7xtIA3XfeLGdOONn8tbOyMq4X/we3+et5pz+eXNvwnRikf36OsC0F9USoecd5e2F9XStbW1VKvVBFQGxi2fvyP99xe+Km+d28hISv/z7a9tuloaXXVjUqMIpLE1fPTqf04/89O/nLfO7ZU//xPpq//Nl+etc3vlz70hffCDH8tbg+mP//Qt9b+zF+Wtc4t1kr/7u34i7b/3zN2gT/fFT3xc+s3fenX2e+m1+Bt41YtenYXhVrz1f742Pf4Jl+ets2u1Uvrmt7wyPfWpX5y3gDJyLVsOQumQ80SG4XTnnfem76kHm2b97Et+tOOxeVdffV362Z9+bd46t6c97YnpTb/2irx1bj951WvStdfckLcG09t+91eanljq6n+q348/09z92PATL/qv6Zue3/q41Vb9we//eXrb//zTvNW8d/zRm9MjL70kb51dq6H0L9/51mysMlBermXLQfddgAE0OTGeHzXn9tvvzo860MJbmJ/85E3p4MFDeevcosvvoItu0s1673v/MT9q3m/8+u9nE0L1UgTGt7/tf+et1kzPTOdH3bOwMC+QApSEUAowgDYqrY1hPHlyMT9qXysda+JDr/l4c9XPqcnJ/GhwzUxP5UfnFsMErr3mU3mreevrG+lVv/Dmns0aft/+g+lVP/9rbQ9hiNvVjFa6ID/qUaoiAGUhlAIMoMpGa6E01hPt1OTUg+NLm3H99TflR+d23u6F/GhwnXdecxW9W2+9q+03CG695c7062/5/bzVPcvLq+klL/mVjt64iHGyzWgl9HY6YzQAg0MoBRhAG5XWljOKNS87FbNVt+L22+7Kj87t8Y9/TH40mKKL6YUX7clb53Zbk/fJ2bzzr96X3vWu9+etzkVIfN0v/1YWeDux0eKbJM0QSgHKQygFGEDRnbMVp86i267Z2dZCaUzG1Exl7F8/44pshuBB9cyvfHp+tL276vdJp978xrelz3321rzVmbf+jz9OH/zgR/NW+3oRSi+8+IL8CIBhJ5QCDKClxeX8qDm7ds3nR+2baXEym+gyfODA4bx1drHG5dd+3bPy1mCZn59N3/Vdz89b27vzjs4nK4oA+LKXvT4dPXoiP9Oev/2bD6U/esdf5a3OtDLRU7NUSgHKQygFGECLSzsfSlutlIZmQ9iLrvp/09c9d7CC6SMfeUl63a++NF3S5Pqk4Y47Oq+UhoMHDqWXv+xX0/p6exXK6//5pvSrv/I7eatzrb5J0owLLxRKAcrCOqVDztpOMJze+c6/T2/41bfmre11Y53SlZXV9Nyv/d681ZwX/9QPpm943rPz1vaiy2+s43nH7Xenk4tLWTflmenJNDU9nS2DM78wVw/HM1nVdnLqobP23vzZW9Nf//U/5K3tRaj81m97bhoff3B5nc1aLQv8EbLi9kZVcvHkUqrWz1cr1TQ9M5Ue8YiL05Of/EXpyi99cstjdZ/39S9Ii10McF/7tV+VfvalP5q3mnPP3felH/nhl6Xjx0/mZzr38le8MH3N1zwjb51dK+uU/smfvqWlwA8MJ9ey5SCUDjlPZBhOf/LH70y//VvvyFvb+6Vf/uls7GYnYjmS5/zb785bzfnhH/nu9B//0/PyVm9dc80N6cVXvSZvbe/KK5+cXv/Gl+Wt3ouX22d/9Xe0vezK2fzgD31n+o7//I1569yOHz+RfvSHX57urgfTbnrRT35/+sZv/Ld56+xaCaXves/vZt2jgXJzLVsOuu8CDKCTJ5fyo+YsdKH77qkVxWZ1Y33UYRHjLnvxPvD/+J13pI985Nq8dXbxpsJLX/KrXQ+kIarJTWny9o+Ojqa5uZm8BcCwE0oBBtCJE62Fvbm5zitOERRanSW3m11VB12rv7NmRc579S/8Wvr85+/IzzxchOFfed3/SDd+6rP5me5q9U2S7USFdGSQp2QGoCVCKcAAaroylZuba32SotNVKtVmC10PWFQpfcDiyd4F9NXVtfSSn31dOnL4WH7moX737f8nve+9H85b3dfting3JuYCYHAIpQADqIhK6aFDR/Oj5q21uJ7qMFtbX8+PeiObkfflr3/YjLzve99H0u//3v/NW73R9JsPTVY/u/F4BWBwCKUAA+hEi5WpqdNmqm3HZz97S37UPHPpPShm9u21f7nxc+nX3/K/8lb8zm5Nv/q67i39cjbHm32TpMnHQzcerwAMDqEUYACdbLFS2o089MH3X50fNU8o3Xnv/Kv3pXe96/3ZTLvRpXdtrfUK7Rd8waPyo+a0+njczvhE65NqATC4hFKAAdRq992Njc66jn78Y9enD3ygjVBaE0obam0E9L17d2cTTLXqTW94W3r5y96QDrfR5fqLvvix6ft/4D/nreZ0e6KjiTZmegZgcAmlAAOmUqlky4u04ujRE/lRa2Jyoz//879NL3vpr+ZnWrNZ/48t7QT0yy9/VPq+F3xb3mpePEZu+OSn81bzdu/elX7hVS9quVLZ7YmOxsbH8iMAykAoBRgwJ9uYxfX3f+/P0p/8yV+nv/mbD6arr74u3XTT59Ott96Z7r33vnTs2Il05Mix7PjOO+9N1113Y3rPuz+QXvfLv53+47f9SPq1N/1uWjdhUefaXOHku777+elLv/TJeat3oiL78le8MF100QX5meYtL69mQbhbJnXfBSgVoRRgwJw40XrV871/9+H027/5h+m1v/Rb6Wd/+rXpR37opem/fN+L03/+Ty9Mz//G70/f8vwfzI6/57t+Ir3ov78qve61v53e854PpMNnWWKkWVOTJqxpaLdLaoTFl778x7OuvL30/T/wHenKK5+Ut1rXzpslZzPSRpdlAAaXv/oAA6aX6112m1lUHzTZQUA///xd6eU/98I00uSSKq16xldcmf7Td/z7vNWebk52VK32fqZiAPqHUAowYBYXByeUTgqlD+g0oD/tXz0xfd8L/kPe6p5HPeoR6aUv+28dB97Fxe5NdtTNrsAA9D+hFGDALC6plA6iycnOx0l+9/d8S7qigy62p5uenkq/8Oqr0tzcbH6mfd18XAqlAOUilAIMmCWhdCB10n23IcaXvuxlP5b27OnO+NKrXvwD6TGPuTRvdWZ5afsZoZtdFWdjQygFKBOhFGDALA1Q992oxLFlemY6P+rMnr2706tefVUa73Atz296/r9L/+7fPTNvda6bb5ZUhFKAUhFKAQbMIFVK5+Y77xY6LGZmpjoet9nwJU96QnrxT/1g3mrdF37hF6Qf/W/fk7e6o5m1c5u9+atr6/kRAGUglAIMmJXl1fyo/83NCqUNEUjn5mbyVue+9uu+Kn37f3xe3mrewsJ8+vlf+ImudCc+VTMTcDXbfXfxZPcmTQKg/wmlAANmbX1wqkgqpQ8124UJhU71Qz/8nen/+bKn5q3txZjUn3vlC9Ml+y7Kz3TP2tpaftS5kye7t7wMAP1PKAUYMGsD1LVxvsshbNDNd7FSGiJkvvznfjw9+tGPzM+c24+/8AXp6U9/St7qrm4+LqOLeq1mrVKAshBKAQbMRg8qpfPzs2nXrvmsa+dMlybkCbNdDmGDrtuV0hC/sze+6efSoy8/dzD93u/7D+n53/ycvNV96+sb+VHnopvvUhOz+QIwHIRSgAGz1uHF/2Mf9+j0/T/wHekNb3p5+r9/8Tvpg//4p+ld7/nd9M53vS399bvflv7m734vOxf7P/qTN6e3/PrPp59/1YvSt3/7N+RfoXm7FubyI8JCj+6PmJH3TW9+ZfpXV3xJfuZBMZY1ft8v+C/flp/pjW5X8E8cP5kfATDshFKAAdPuxX9UQmOCm7e9/XXpO7/r+emKK56U9tbDzNlExfQRj7gkPfkpX5Se9awvS8/79/82/5fmzS/M50eEXT28P84/f1d6/Rteln7iRf81e+Mhqt8x3vTNv/bK7Pfda92slIYjR4/nRwAMO6EUYMBUq9X8qHkTE+Ppl375p9OzvvrL8zOtu+DCPflRc8bGRrs62+wwmO9x5TjGmH7T85+TvfEQ1e/X/cpL0lOe+kX5v/bWxkZ3Q+nBg4fzIwCGnVAKMGBG6v+16uu/4d9ka1t2Ynq6tSVEYqxjt9blHBZRrR5W7Twuz+X+g4fyIwCGnVAKMGDaCXrPec5X5UftiypcK986QikPtTDMoXS026H0SH4EwLATSgEGTKsX/xEmH/u4y/NW+9bXK9msqM3atcskR6cb5qA+2uWq+EGVUoDSEEoBhlx0GW216+2ZLJ5czI+as+u8hfyIhl5OdFS0kdHuXlIcEEoBSkMoBRgwY2Nj+VFzZma7s+7o4tJyftSc+XmV0tMNc/fdZgr4my2U2u++a39+BMCwE0oBBsz83Gx+1JxqpfXZes9k8eRSftSc81RKH2aYJzqamu7Omx8Ny8ur6dAh40oBykAoBRgwrS4rsrKylh91ZnGxtVCqUvpwwzymdKEHy93ccce9+REAw0woBRgwrV78r66u5kedOXr0RH7UnF6ElEG3sNBalXuQ9OJNiDvuuDs/AmCYCaUAA6bVi/+NjUqq1Wp5q31Hjx7Lj5qjUvpwMRPyzEx3u7n2i150Tb5TpRSgFEY2W5l1gIGzf//WRBH79u3L9sDge/e73p9+5XW/k7ea8+6/+d001+JY1NP91m/+YfrTP/nrvLW9V7/mJ9Mzv/Lpeav3rrnmhvTiq16Tt7Z35ZVPTq9/48vy1s75D9/yw02PlSzqZ2z1vgwvedl/S895zlfmrTP76NX/nH7mp385b23vEY+4OD3rq78sbxXvkZfuS8973rPzFrATXMuWg1A65DyRYfh88pOfTi/8sVfmreb87z/7jXTRRRfkrfa85tW/nt733g/nre296c2vSE/7V0/MW703KKH0e7/nRemO2+/JW+c2SKG0md93q6G03xT1+4Aycy1bDrrvQq5arWZj706ePJlOnDgxFNvi4mJaX1/PbyHD4rLLHpkfNS9mMu3UiROtrVPaaWV2WM3NDuf9ctmjH5EfAUBrhFJKr1KppKNHj6YDBw5k+whyS0tLQ7FFwD58+HB226LNcDj//F0tj99bWmxtjdEzWVlpLdhOz0zmR5xqtkvrxvaTmNRqz57deQsAWiOUUmpRGb3//vuz/chIEyu/D6iY5CYqp4cOHcoqwgy+yx7dWrV0ucVAeSaVjUp+1JyJ8fH8iFONTwzf/dLq4xEATiWUUlorKyvpyJFyLcy+sbGRVU67MRMrTajfz7WN9VRbXUzVpWOpeuJQqh478LCttnT0wa3+sdm2tpI2K+vZdiZPfOLj86PmLC+v5EftazVMjfU6lFYq2f1T21jJ7rPN9daqwZvrK6ly8NaHbBv3fi5t3POZs27rd96Y1u/4VEvbxt2ffsjXGKs0/wbB5sbawx8zJ+rP4fpjpbrYeLwsbT1OzvJY2Qlf8JhH5UcA0DoTHQ05g8PPLLrsRoW0rKamptKePXvyFp2r1QPC8VQ7uRUWNldOps16UEjV7oaEzZGRNDK6FfQ+cfOB9LLf/vvsuBkv/dFvSs/68idnxyNjY/X/xXuS9a83MZGdq5+snxpL8YIwMpafq7ezjw31cy/9ubekqz96/Va7CX/xv9+YzluYqQereriuVer3Rz1E1rdU3cj39a1WTZubtTSS7Tfr5ze2Pjn+Ldr18/Ex9cbWuezf8o85zXU335de+tZ/zFvbu+Lxl6TXfP9X5a2d89o/+mj64PV35q1za+dnfOB3GL0/4vEyOrr1uKnvs99pvm3WHwOxj3ON81sfM54+ceMt6Wde9fatL9iEn3vlC9Ozn/2MvHV2H6s/fn76p34pbw0eEx3BznMtWw4qpZRSjLUss7W1tWyjM7XlE2n9tuvTyif+Jq3f+P5UueOTqXbozrRZD6bdDqRhJN5DjEBW355y2e60a675MZvVowdTdf/nsq1y96dT5a5/qW83po1b/3lru+XatH7zx9JGfVv/zEe2tps+lNY+9f6t7fq/SxePt1aJXP+Xrc+Pr7XxuY9m36Ny+/XZ967e+9lUPXBLqt5/e3afVY/ck2pH702bJ+7f2iLcLx9LabX+XI0K6PrKA7d90I3U/+ul7KvH/RSV07jvoopcvy83F49k923t2H1b9/fhu7L7P/s9xOPinvxxUX8cV+/7fPa1mjE+NpKePHcirX36I2mt/ntev+UTaf2OG7YqxPtvTpWDt6fK4buzKu/chF4aADycUErpxJjK6LpbdsvLnU98U1a11eX6xffH0uon35dd0KeNzsdrtmpifDR9zRWX563t1er/depJj2ltSZnltcEPkL2wvD5c98vTv+gRaX5zKdWOH0i1etjNgm6E0btvqgfceji99RMPvNlx2ern0+xUXokHgJxQSulEhXCYJzVqlkppe6Las3bjP9Qvvu/OekcW6Vuf9YVpaiLvXruNyS6M77zyC/el+ZnmA8XKqlB6JqtreTfkIfGNX9H8+OaJsbH0dV/2BXkLALYIpZROjCclhuttmom3RZWj+7MuikVOKHOqvbtm0vd+3dY40e1MT3T+5356ciy94LlPyVvbO77sjY8zOTFE98sVT7gkPe1xF+Wt5nz3c56UHnfp+XkLAIRSSsjcXg8yC2/zYjbcjc9fU3h19HTPf+bj03O//LF56+ymJrvTZfLr69/r+5775Gw+nO3cft/x/IiGjWo13XP/cIxp3z0/nV707U/PW82LNzde+4NfnZ7z9Mubehz1k2w25JNHsr8HMbs2AN1h9t0hZ8ayh4tJjhYXF/NWuV188cX1i0LvTTUjlgKJyXn61fuuvS398T98Ou0//OBjO0LDl37hxem5X/bY9MTLWxsPup17Dp1M7776lnTTHYfS3QdPpOW1apqbHk/jY2Np35659KiLF9LTv3BfeuZTdm6pkANHl9KHrr8rb23v4j2z6VlPvSxv7YwjJ1bS33/ijry1vSJ+xhCPozf+72vSp2478yzll164kF7xfc/M9p04fHwlffLW++v3y/JAZLxTfx9x9TQyMZVGJqfr++mUsv3M1rmpmTQ6NVs/N5dGJ5qfkAx4ONey5SCUDjlP5IeLSY6OHTuWt8orxtVecskleYvtrPzz36a0tpS3+tf9x5bT8cW1dN78VLpwd/2iGDpwx4ET6brP3ZduvutoOrGynvbUH1dPedzF6aufdlk26y5NGJtII9Nz9aA6n+1H585Powt702g9xALbcy1bDkLpkPNEfrjosnrgwIG8VV4zMzNp9+7deYvtLH/sL+p/MHXXA7pkeiGN7700jV14WRqdns9PAqdzLVsO+u1ROtFdNQJZmcV7UXNzc3mL7QmjQJetnszWhl39579Na5/5p1RbKff62UC5CaWU0sLCQqmXhZmdnU0TE9YKbN5oGp3pbOwcwJnEa1Ht2P60esPfp8qh5sdEAwwToZRSGhsbS+efX84lCSKM7tq1K2/RrNHdxt8CvRPDA9Y///FUOXpffgagPIRSSmtqairt3bu3VLPPTk9Ppz179phxtw3jF39B2kwmdgF6J/7CbNx+/VYDoERcmVJqk5OT6cILL8zGVw5rd94YPxrV0agMxyaQtieWd5i49IvzFkCPrC1trYMKUCJm3x1yZixrzfr6eqpUKtkMvYP+1IjwGVsE0vHx8fwsHak/JlZv+se0efJQfgKguzZHx9Lslf8+xpnkZ6DcXMuWg1A65DyRocuqG2n1M/8kmAI9MX7ZU9LEIx6ftwDXsuWgHx9AK8Ym0vQXPTONXvjo/ARAF4xNpokvuFIgBUpJKAVo1dhYmnrsl6aJxz09pfHJ/CRAa6Kr2sjc+WniMVekmSuem8YvunzrHwBKRvfdIafLA/RWbWM9Ve6+KVUO3JpGsktMgLOYnEmjM7vSyOyuNLpwwdY24Y0tOBfXsuUglA45T2TYGbXV5VS597Opcv/t2XqDQEmNjqeR6fk0MjOfRqcXsuPR2YU0OjWnZwW0wbVsOQilQ84TGXZWbWMtVevBtHLgtmxpB2D4bI6MpJGpetisB88sgEbwjAA6Uw+fk9P5RwGdilURDh8+nB27lh1uQumQE0qhONXl46l6+O5UPXSXgAqDaGxiK2hGl9vpuXrwnE+p3h6rt9OQrm0N/aJarabl5eW0uLiYtV3LDjehdMgJpdAfaktHU+XQ3al27L5Uq4fVERe00B/GJ/PutvXwmVc9R6brwTMCqLVCoRART5aWlrK9UFoOQumQE0qh/9TWV1Pt+IFUPX6wvj+Y0sZq/i9AT4yNZ91ttwLnXBqtB9AInlm3WxMNQd+JCmlUSoNQWg5C6ZATSqH/1ZZPptrJQ6la32onD+vqC+0Yi4rn3FbQzMPnVgW0HkLHjfOEQbG6upo2NjbyllBaFkLpkBNKYfBkldQsoG6F1NrSccvNQJiYyiueW+M7G5XPbNIhFU8YeBFGV1ZWHjLERSgtB6F0yAmlMAQ2a6m6cjJtLh7NQmq1vm3W24alMmyyWW0nZrZC51RUOhvhM9oLKY2P5x8JDJvGxEanE0rLQSgdckIpDKnKeqouHUu1CKrLx9Lm8vFUW1lUUaWvbdYfoSOT9dA5NbsVNuv7rUpnXu2cnMo/EiiTWq2WBdIzxRKhtByE0iEnlEKJ1F/UYxmaLKDmWxxHgIUdERMKTdaDZoTNxn6qHkKz46h2Rugc3fpYgNypExudTigtB6F0yAmlQG1jPW2unEi1+hbdfreOF9Pm2lKyNA3N2hwZrYfL6a3utQ8EzQcD51j9OJZXAWjF2tpaWl8/+5unQmk5CKVDTigFzqpaTdXVejiNrR5QG/vaav14bVlX4JKI3/JITCAU3Won6qEz9hE+62EzndIerX8MQDdVKpWsSnquN0iF0nIQSoecUAq0pVZLtfWVLJxurte32GfHW+dq9XMjtTN3taJ4WdAcn8zCZhqPwFkPl7GfqJ+rH6fxqHhuBc7RaKuYAzssxpEuLW2/BJpQWg5C6ZATSoFe2axu1ANqPaRurG2F1Y3V+r6+xb6+pTgfW2Vd1bUD8TIdATONTdT3E1kX2ZE4jsAZFc4sbMYWQTNC6ORW0AToYxFII5huRygtB6F0yAmlQF+obKRa5cGQGpMvZftqNQu3KQJuVF6rlbwd+0qqf9LWcf3zB62Yly1vMjqe0uhY/dV2dCtYxo2IyYDiXCNkjtVDZn1/6vGD+wnrbwJDJ9Yija67zRBKy0EoHXJCKTA06gG2lgXVeoDNQ+pmXNRsPvhOewTaRnbdjHfgNx+86Nms1EPv5jZdjiMojj40/car5GgEytPVPzZ+iCw8jtRD5uhoinU0R+rHUckE4OFiUqOY3KhZQmk5CKVDTigFAKAfNDOx0emE0nKwWBgAANBTMX40uu1aiowzEUoBAICeikAKZyOUAgAAPbO6utrUTLuUl1AKAAD0RExstLGxkbfgzIRSAACg66rVaksz7VJeQikAANBVscCHcaQ0SygFAAC6KgKplSdpllAKAAB0TUxsFF13oVlCKQAA0BUxqVFMbgStEEoBAICORXU0qqQjIyP5GWiOUAoAAHQk1iE1sRHtEkoBAICORIXUxEa0SygFAADaFmuRmtiITgilAABAWyqVShZKoRNCKQAA0LLGOFITG9EpoRQAAGiZiY3oFqEUAABoSQTSqJRCNwilAABA09bX17OxpNAtQikAANCUCKOx/At0k1AKAABsK7rrRiA1sRHdJpQCAADbikC6ubmZt6B7hFIAAOCcIpBWq9W8Bd0llAIAAGe1sbGRTW4EvSKUAgDADllcXMqPBkNUR40jpdeEUgAA2CHz83P5Uf+LiY1iPVLoNaEUAAB4GBMbsVOEUgAAtlep5AeUwdramomN2DFCKQAA2xt12VgWMbFRhFLYKf66AACwPaG0FExsRBH8dQEAADIRSGGnCaUAAEA2027MuAs7TSgFAICSizGkFZNZURChFAAASizCqImNKJJQCgAAJRXddaPbromNKJJQCgAAJRWBFIomlAIAQAmZ2Ih+IZQCAEDJrK+vm9iIviGUAgBAiVSrVRMb0VeEUgAAKInGxEbQT4RSAAAoidXV1bS5uZm3oD8IpQAAUAIRSKPrLvQboRQAAIbcxsZGNrkR9COhFAAAhlhUR6NKOjIykp+B/iKUAgDAkDKxEYNAKAUAgCFlYiMGgVAKAEDTovLGYIi1SE1sxCAQSgEAaMrNN9+a3v72P85b9LNKpZKFUhgEQikAAE3Zt+/idMUVT85b9KuojsY4UhMbMSiEUgAAmjI/P1cPpU/JW/SrGEcKg0QoBQCAIREVUuN+GTRCKQAADIH19fVsLCkMGqEUAAAGXIRR3XYZVEIpAAAMsOiua2IjBplQCgAAAywCKQwyoRQAAAZUdNk1sRGDTigFAIABFBMbbWxs5C0YXEIpAAAMmGq1mtbW1vIWDLaRzbr8mCG0f//+bL9v375sD824665703ve/YG8NXgeeem+9LznPTtvNe/OO+9Nf/OectzuMt1WgGETl+9LS0vZftgtLi5me9eyw00oHXJCKe245pob0ouvek3eGjxXXvnk9Po3vixvNe/qf7ou/ezPvDZvDZ5WbneZbivAsFleXs4qpWUglJaD7rsAuY2N8iw4XqbbCjBMYmKjsgRSykMoBchtVMoT1CpVoRRg0EQgjcmNYNgIpQC5aplCqUopwECJWXYjkI6MjORnYHgIpQA53XcB6EfRXTeqpAIpw0ooBchVSjRGp0y3FWCQ1Wq1tLKykrdgOAmlALkydWnVfRdgMESF1GIZDDuhFCBXqomOKiqlAP1ubW3NTLuUglAKkKuWKKhVShTAAQZR/J2OUAplIJQC5Ex0BEA/aIwjNbERZSGUAuTKVD1UKQXoXyY2omxGNo2cHmr79+/P9vv27cv20Ixrrrkhvfiq1+St9szOTqcrv/Qp6fLLL03TM1P52Z1xySUXpa/5mmfkreb9zm+/I/3xH70zb7Umbu8zvuJL02WXPTKNjRfzfl8rt7tMtxVgkEQg9cbhgxYXF7O9a9nhJpQOOaGUdnQSSmdmptP3veDb0vO/+TlpamoyPzsYfv0tv5f+7P+8J2817xnPuDL91M/8UNq9e1d+pv+V6bYCDIr19XXjSE8jlJaD7rtA11x08QXpN3/7Nek//qfnDVwgDe3McPjUp31x+oVXv2jgQlqZbivAIIjqaCz/AmUklAJdERXS1772p9NjHnNpfmbwxMQSrfqxH39BGh8fz1uDY7PWeieZQb2tAP3OxEaUnVAKdMX3fO+3psd8wWV5azDVWgxqj3jExelxj3t03hos1RYD+CDfVoB+Z2Ijyk4oBTo2PT2VvvlbnpO3BlerldILL9qTHw2eVqcTGOTbCtDPostuOz11YJgIpUDHvvTpT6kH0+m8NbhavSg4eXIpPxo8tWp5bitAv4pxpBsbG3kLyksoBTr2qEc9Ij8abK0GtdtuvSsdPnwsbw2WVrvvDvJtBehXJjaCLUIp0LHzdi/kR4Ot1mKX1ugC+/a3/WneGiybm62F0kG+rQD9KAKplRlhi1AKdGxyYiI/GmytVkrDu9/1/vQHv//nPbuwiDXr7j94JH3+5tvTJ679VLr22huy7fbb7+5oDFKZbitAv4kuu7rtwoNG6hcX3qIZYvv378/2FhymFddcc0N68VWvyVvbu+onvz/9+2/8t3lrcP38K96UPvCBq/NWa57whY9JX//1z06Pfexl2RqtIyOjaW7+4eNsF08uZ/uV1bV0/NjJdOLEyXT06PH6fjEdP36ivi1m5+Lf4vzKytm7dsX3ee7X/5v0Xd/9/HTBBa1NRPTzr6zf1veX47YC9JvFxUVV0ibFfRVcyw43oXTICaW0o9VQ+jM/+yPp6577rLw1uDoJpUWKkPabv/2qdNFFF+Rntlem2wrQT6JCaixp84TSctB9F+jYxMR4fjTYpmem8qPBcujQkfSbv/4Heas5ZbqtAP0ghiEsLS0JpHAGQinQsYkhGVM6OzOTHw2eD33oY+nee+/LW9sr020FKFoE0uXlZePj4SyEUqBjE5PDUSmdmR3ctVZjJMZHr74+b22vTLcVoGhm2oVzE0qBjg3L7LsXXrQ3PxpM/3Lj5/Kj7V144WBPFtTKbQUo0traWqpWq3kLOBOhFOjY+JCMKb3sUY/IjwbT52+5PT/a3qMffWl+NJhaua0ARalUKlkoBc5NKAU6NixjSh99+SPzo8F05PDx/Gh7lz16sAN4K7cVoAgxfnRlZSWNjIzkZ86s0a1X917KTCgFOjYxPhyV0j17dqcvedIT8tbgOXlyMVUqzXURy27rlzw+bw2eVm4rQBEikDajEVq3C68wzIRSoGOb9f+GxXOe85X50WA6fvxkfrS953zdYK8t28ptBdhJEUi3m2lXCIUHCaVAx4ZpAodveN7XpC/6osfmrcGzsVHJj7b3Dd/w7NLcVoCdsr6+no0l3Y7uuvAgoRToWK06POuujY+Ppdf+ykvSM7/y6fmZwVKrNR/Utm7rz5TitgLshAijsfwL0JqRTW/TDLX9+/dn+3379mV7aMY119yQXnzVa/LW9t78llempz71i/PW8Ljn7vvSP119XfrcZ29Nh+4/kg4fPvqQ6tz8/Gwaqwe72dmZNDU1maYmJ+rHW+fi30ZHR9Ps3Ewaqf83vzCXfU6cm5+bzY5PdeLkYvrMTZ9PH/zg1Wl5uf0Lmt//wzemyy5rfRKjO++8N13z8U+mT990c/12HktHjh5L62sb+b+mNDMzVb9d42mhfjtiDHG0p6an08TE1rnGbQ1x+0bq7en6fTI5OZmdO92hQ0fSxz9+ffr4xz6Zn2ldu7cVoBeiu+7y8rIKaJctLi5me9eyw00oHXJCKe1oNZT+4i/9VHrGV1yZt+jEsWMn0ut/5X+kD3/4mvxMa37vD14/UMu9XHfdjekVL39jNnFRqwbttgLDLQKp9Ui7TygtB913gY6ZcKZ7du/elX7h1Velr/7qL8vPtOZslcl+dcUVT0qves1VqZ35PgbttgLDK7rsCqTQPqEU6Njx4yfyI7ohZmS86sU/kHWLbdX09HR+NDie9rQnpq94ZuvjWqPLNEDRNjY2ssmNmmXWXXg4oRTo2H33HcqP6JaFhfn0NV/zFXmredPTgxnU/vW/viI/at4gBnBguER1NKqkrQRNI+fg4YRSoGO3fP72/IhueuKTnpAfNW9Qq4cXXrgnP2reoAZwYDjExEaxHinQOaEU6Ngtt9y57SLhtK7V7ruTkxPZLLiDKGbrbcUg31ZgOESFtJWqp267cHZe0YGOLS+vpGuv/VTeoltiaZZWTE1N5UeDp3LKUjvNGOTbCgy+tbW1liY2ivCq2y6cnVAKdMXfvPsD+RHd8olrb8iPmjPI3Vnvvue+/Kg5uu4CRYmJjSKUtkKVFM5NKAW64oMfvDpd22KI4uzuvOPe9I8f+ljeas7U9GBWD6N68A9//5G81ZxBva3AYGtnYqMglMK5CaVAV0SvpF989W+kz99s0qNOnTy5mF75ijfUL35aG6c7PaCTHP3VX74vfebTt+St5gzqbQUGWwTSdui6C+cmlAJdc+TIsfTDP/TS9I4//Mt07Ji1S9vxiU/cmH74B1+abr31rvxM8watehjr+v3e//qz9OY3vT0/0zyVUmCnxUy77UzqJ5DC9kbqTxTPlCG2f//+bL9v375sD8245pob0ouvek3eas/Y2Gj6V1c8KT3+8ZenxzzmUWnv3vOz2WRn52bT6ZOmxmv88tJydnxycbn+Al5LqytrqVKpZsFlde3BRclXlldTpfrQSXHi3KkTTjzy0n3pec97dt5q3l133ZveU8DY2KiIHj16PH36ppvT3Xe3NrbyVFdc+aT0hje+PG+dW1G3NcTv9f6Dh9N1192YTpxYzM+2ppXbCtCpGEMar0e9Fpfluvo+1OLi1uuEa9nhJpQOOaGUdnQjlBbpyiufnF7/xpflreaV6XaX9XcM0KpKpZKWl5eFxYIIpeWg+y4AAJxBdNeNbrs7EUjViSgzoRR2Wv0Frra2kmrLJ1Jt6eiZt5XFVFutb2vLabOyHos45p9MM6L7b62yunUf1rfq4rHsfq2eOJSqxw6kytH7UvXw3Q9slfvvTJWDt9b/batnwaDarFU9XgC6KALpTlGJpcx03x1yuu8WKwtDJw7WA+jxtLlyIm2uLtVPth8Y4tk6Mj6x1Rjb2m+16y9kY+PxipZGRsfr22jaHB2rN0dTNoCzfq5+Mo2MjW3tx8ezrzU6ns9gmn+t2I+MjqR/+NAn0mt++a1b5wbQFY+/JL3m+78qbzXvupvvSy996z/mrcFz+u3erD8uRrLHRTwG6r/7eEzk++s+d096yZvemX/k4NF9F+i1CKTRdbcdcXndSshs9ePLRPfdclAphS6LCuj6bdenlWv/Oq3f+A+pcuenUu3QnWlz6VhHgTRkr1fxNWJbX862zQi8y8fS5slDafPE/al2bH+qHrkn+57V+29P1QO3pur+z6XqvZ9Jlbv+Jft5Nm7951S57Z/T+s0f29o+85Gt7V8+kNY+9f70p3/4Z1vfkIE2Uo+l2WOlsrb1eFk9ufVYWTy89XgE4IxiUqN2A2loNWAKpJSdUApdUltdTmufvTqt3fC+ehC8pR4Eej9LXy/cefBE+vzdR/MWAJRLzOYes+0CO0cohS6oHLgtrX7y71Lt6L35mcF12/7Br6BtRoWQoRZd4qNHwsbdn04bB25NlSP3ZGOGa1kX+farG0C5NSY26oSqJ7ROKIUOZRfFt12XRjZbX1C7H83PTOVH0L9GKutZj4TK3TdlXdE3PvfRtH7Th9La9X+bVq75q/r2zrRy/XvT6k3/mNZu/nhav+OGtLH/5lQ5dFc9vN6faisn61efwivwUKurq9n4zk60+vmmdwGhFDpSPXZf2rjrX/LWcHjKYy9Ij9g7n7dgQMVY2hhDGwH0cD2IRiCNYPr5ekCNoPrJ96aVj/9VWv74X+bh9cNp7ZZr03qMuz5wWzZDc4wPN5MxlEcE0ui6u9NUVkEohfbVL3rXb71u6F5MJsbG0ite8Mx0yZ65/AwMr5Fa/QI0C68HU+3+O1L1ns9kPR82Pvv/ZePDV659Zz24/lVarQfXtU9/JK3f8om0cddNqXLw9lQ9Xv+c6C5cG45eElBmGxv11/T1zueCEDChPUIptKly+O6U1ndu/bKddNlFu9Jvvehr0wue++R00fn9G05nJsfT/MxEFqAv2j2bZqfypW2gi0ZqlbRZD6614weyGa0r93w6bdz6ibT+6Q9vdRf++F9k3YVXb/iHtB7diO/4VL7u7YFsnVyhFfpfVEg7DZTRDVdXXGiPdUqHnHVKeyeqJnGRWgZ33X8i3XTb4fQvt92f7qwfHzq2ko4urnR0rT03PZlmp8ezYDkzNZ61F2Yn03x921Xf5uphc2Fmaut4diLbz9RDZwTPifHRNDUxln+lh1pdr6a7D55Ij7v0/PxM8w4cXUofuv6uvDV4Lt4zm5711Mvy1rmV6bYWLV5kRyZn0sjUXBqdnk8jsc0spNG53Wl0anbrg4BCnThxQpWzT1mntByE0iEnlPbOyrXv2lr/saQq1c10rB5MF1c2UqVSS8trlVQ9Q0qNF/n56Yk0XQ+eET5jU9GE3PhkGl24II3uvjiN7d5XD6kz+T8AOyVm2+1kTdJ2xOW3ENwcobQchNIhJ5T2zvJH/2/ycgJ0S7waj51/SRq/5HH1gHpxfhbolVj+ZXl5ueMutwJmbwml5WBMKbSlFiXA/Bigc/EnpXbsvrT+mY+ktU9/ONXWlvN/AbotKqPdWP4ltBpI1YPg4YRSaMtoNj4MoBdqxw+mtU+9P1WXjuVngG6JSY0a2047taoqnMKDhFJo0+js7vwIoAcqa2k9JlRbL+/YdeiFCINra50/r84VKs/0b6cG0qDLLzxIKIU2jV1waX4E0CP1YFq568a8AXQqxpHGxEbdCITn+hpn+jchFM5OKIU2je/eV//fVN4C6I3KoTvjSjpvAe1aX1/PAmm3dBI8dd2FhxJKoV2jo2nisiflDYDeGNmspdp69y6koYxiYqMYQxqV0k6cGibP1kW3Gaqm8FBCKXRg/KLL0sj83rwF0H2bI6NpdGI6bwGtiiAaWzfWIu1mmFQthQcJpdCR0TT5hC9PadKC90BvjF94eUpjY3kLaFUE0lj+pRO9qGyqlsKDhFLo0OjkdJr8wq+oXzlO5mcAumNk4YI0+ein5C2gVd2a2EhVE3pLKIUuGJs7L0096d+kZO1SoAs2R8bS+KVfnKaf+JWqpNCmbk9sBPSOUApdMjo9Xw+mz06j5z8iPwPQvKjDjMzvSeOXPSlNX/H1aeLSJ9ZPeJmGdkRlszGWFOh/I/Unrf4IQ2z//v3Zft++fdmenVE5cFvauPOGlKqdT6oADKeoho7OnZdG58+vb3vS6O6L0ui4CY2gG2JSI1XS4bC4uJjtXcsON6F0yAmlxaltrKfK3TfVA+otyVQGUHLjU1n4HJnZlUZnFtJI/XisfpxMdAI9EUGmG5e48TVMSFQsobQchNIhJ5QWr7Z8Im3c85lUPXyXcArDbmw8D5670shsfT9XD5+zu+uhdDz/AKDXYqbdjY2NvMWgE0rLQSgdckJp/6itnEyVA7em6v13plRdz88Cg2gzjWxVPGfPS6P1rbEfnbI8FBSlWq1mkxt1Yz1S+odQWg5C6ZATSvtQrZaqR+9NG/WAWjt+ULcg6HfjU1tVz6iAzu3eGgc6vZBVRYH+EIE0qqPdrJDGJXK7r9GdfC4PJZSWg1A65ITS/lZbWUzVw3em6pF70+by8fwsUITN0bGtamfW9TavfNYD6Ig1iKGvxQy7EUq7sR5pEeJndjl+dkJpOQilQ04oHRy11XpAPXJPFlBrJ4/UX6TyfwC66oGut/Ut63qbVUCj+jmffwQwSCKQLi8v563uERb7g1BaDkLpkBNKB1NtfTXVjt2XqscOpNrxA/VXXBM2QKsifI5Mz6WxPHg+0AU3wueo9T9hGESVNAJpty9nG19PF9ziCaXlIJQOOaF0GNRSbel4FlCrxw+m2olD9UttT1t4iNOWXNmqfO5KaWws/wBgGEUgjUppkeJSut3w2snnloVQWg5C6ZATSofPZmW9Hk7vr4fTfFs+UX9By/8RhtjmyOhWt9vpeujMu9/GNpZNOiR8Qtmsra1ls+0y3ITSchBKh5xQWgKVjVRdPLJVRY1t6ZiQymAbm0gjU3NZ4ByNLrfR3TbC58yu6EuXfxBQZrHsS1RJ+7XKqALaPUJpOQilQ04oLZ/Naj2knjicNutBtZZvxqTSb7Kq53Q9eNYDZ2yxxMpW5bMeQifMdgucXYwjXVpaylvdI0j2J6G0HITSISeUEmrLJ+vh9HAeUo+m2srxePLn/wq9sRU8I3Ruhc/RmfrxVB5Cp2bzjwJoTQTSCKZFOleAFW67SygtB6F0yAmlnNFmLVWXT6TNpWNZd9/a8rH68fF6eq3kHwBNGh2vB83ZvOKZh8/sWPAEui/WIo2uu4NOcG2eUFoOQumQE0ppRW1lsR5Qj6fNlZP143porW+1+vFIPcRSUtn4znrofGCrB8/YT27tdbUFdkpMahSTG3VTBMNWL4W3C5TtfE3OTigtB6F0yAmldK6WaqvL2Sy/EVY3V+vBtb5tri3Vt5X6i2/+YQyc+mVVGpmYqgfMma3ttOCZjfmsh1KAovX7xEb0jlBaDkLpkBNK6alqNdXq4TQLqasRUmNbTpvrsa3UryJM1V+E+LM+MjFdD5qx1cNmdjyTUrTz49hG622AfhfjRyOQumQtJ6G0HITSISeUUqhqJdXq4XQrqNb3EVY31ur71a39Rn1fPx7ZLHbh84EQFcuoao5PZlvK9vX2xNY+xT4LnNGltt4eHc0/EWCwRSCtVrv3OpG9cddixbWdz6E7hNJyEEqHnFDKQKhu1MNrhNT6Vl3PKqyb+dY43tpvZJMxbdbDbgTeWP5mEC4RNkfH0kh9yyYFGq+Hy+x4rN6cfPDfYuxmI3DmQXMrfE6l0cnoQitkAuWzurqaNjb6f1kzobV3hNJyEEqHnFDK0ItqbK2aBdvNarUeUmvZPtXPZRcJEWLjz1ztwYuazVq93czarWP1EHlqxXFzZCtUniKWPclCZcjD5lbwHE+j8bkRLAFoWYTRmG23qLAnaPYHobQchNIhJ5QCAIMmuutGt91uaTVg9iKQCrntEUrLQX8wAAD6RkxsFBXSbmo1DJ7p4zup4wikcG5CKQAAfSPGkXYSAHulk1ApkMK5CaUAAPSFtbW1rs+0C/Q/oRQAgMLFxEYRSrupmQrlTlQxVUrh3IRSAAAKFdXR6LbbSnhrVEE7qYbG99uJaqqKLZybUAoAQKEikLaqEWA7qUI2ExbbDZStfJ7QStkJpQAAFGZ9fT2bcbdZO90Vtt3vd6bPO9vX2unbBP1GKAUAoDARSlvRjapihMAiqqQqonBmQikAAIWI9UiLCGpRmW2mOtn4mFZ/xtO/tjAK5yaUAgCwoyKkLS4upkqlkp/ZWaOjrV0Cd9q9ttPPh2EnlAIAsGOiSrm8vNxW9bBb4bBXlUsVUWiPUAoAwI6IQBprkbYysdGpTg99rYbAXodGFVFoj1AKAMCOiO667XbZPVPg60UI7NbXFFCheUIpAAA9V61Wsyppu3aqa2yjittpqNSVF5onlAIA0FMR9GKm3UHQCKPNhkrhEzonlAIA0DNRIV1dXR3a8KabLnROKAUAoCeiQrqxsZEF03a0GmSLHg+qagrtEUoBAOiJCKPr6+t5q3WthsNuhcJmvs6ZPkbVFNojlAIA0HWNbruDFtSa/XnP9HGDGEpVd+kHQikAAF3VjYmNigp4nYS0nQ543fh+gxikGT5CKQAAXdOtiY0GoYJXdKATKBkWQikAAF1TqVTantho0AxCcIZBIJQCANAVEUjX1tbyFjtBMGYYCKUAAHQsqqMxjrTTLqVFdkndLuD1Y3dZXXgZBkIpAAAdiQppjCPthiIrf9sFPFVJ6A2hFACAtsVMuxsbG9m+U6p+59bL+0fgpkhCKQAAbYsqaWzd0M/BqIif7fQQ2sufwRsCFEkoBQCgLd3sttvvdjK0Nb6X6iVlIZQCANCy6K7bjYmN2NmKKPQjoRQAgJY0ZtrtlmEIYWe6DaefO1uA7+bt9yYBg0goBQCgaRGgujWxUcMwBKkz3YYiKqA78T2g24RSAACaFoE0NrYUHahVRhkGQikAAE2Jbrtra2t5q3sGOVgVWZmM760yyjAQSgEA2FaEn26OIz1Vr4JVt7/u6V+v6ECoSsqwEEoBADinxsRGRYewVnUrtDVu9+lfb6dC4aDd79AqoRQAgLOKCY1iDGkE024blEpf0T/noNxP0C6hFACAs4owur6+nre6SwVwi/uBshNKAQA4owikq6urKnU95v6l7IRSAAAeJrrt9mpiI4BTCaUAADxEBNKokOpWCuwEoRQAgIeICmkvJjYCOBOhFACAB0QgjUopwE4RSgEAyMQsu5VKJW8B7AyhFACALIzGOFKAnSaUAgCUXGOmXUuTAEUQSgEASs7SL0CRhFIAgBKLLrsmNgKKJJQCAJRUTGy0sbGRtwCKIZQCAJRQrEO6traWtwCKI5QCAJTM5uamcaRA3xBKAQBKJgJpBFOAfiCUAgCUSExsFF13AfqFUAoAUBIxqVFMbgTQT4TSIadrDgAQojoaVdKRkZH8DEB/EEqHXOOFx/pjAFBecR1gYiMGjeJKeQilQ250dOtXLJQCQHlFhdQFPoNKdX/4CaVDbmxsLNtXKpVsDwCUS6xFamIjBlGjqCKUDj+hdMiNj49ne6EUAMonXv8jlMIgaoTSRpGF4SWUDrmJiYlsb6Y9ACiXxjhSVSYGVaPCPzU1le0ZXkLpkGs8iYVSACgXExsxyGIMdKOn3/T0dLZneAmlQy6678YWT2wvTgBQDvGab5JDBlmjShqTdjZ6/jG8hNISmJmZyfZCKQAMv+gdZS4JBt3Gxka213W3HITSEmiE0pgOvvEEBwCGT4TReL2HQRZV0kaldH5+Ptsz3ITSEogZy2ZnZ7OJDk6ePJmfBQCGSXTXjUBqYiMGXWMulBhL2lhJguEmlJZEvMsUL1IxLbxuvAAwfOL1PeaQgEEW1f5GlXTXrl3ZnuEnlJZEVEsXFhay4+PHjz/wZAcABl9USE1sxKCLN1Ua6+rOzc1Zn7REhNISiSf35ORk9oQ/evSoFy8AGAIxX4Sl3xh0cX0ab67EPrrsqpKWi1BaMrt3786m1o4XsKiYAgCDK3o+GUfKMIg3Vho9+fbs2ZPtKQ+htGSiG0Q80ePFK17Ejhw5omIKAAMoXr/NE8Gga3TZjYJJHO/du1e33RISSksoFiA+//zzH5j4KIKpMaYAMFgaXR1hUDW67DaWLIzr0xhqRvmM1B8M/pqVVPwBaFRKI6Ced955D6xpCgD0r3hT2ThSBlnMshuP40YUiZ58U1NT2THlI5SWXFRIjx079sALW7w7FbP0epcKAPpTvKkc3XaNI2UQxbXnqeNHG0PLrEdabkIpmaWlpXTy5Mns3arY4p2q2dnZbB8TIwEAxYveTfGaDYMkri0jhMYbKqcOGYuVIcyySxBKeUD8kVhcXEzLy8v5mfoDZGQkq5rGFu9gxRYhVVAFgJ0VgTReo1260c8aj894vMYW15fRVfdU09PTWc881VEahFIeJv54RLeg2E7/IwIAAK2Kgkb0wJufnxdGeRihlHOKUBr9/mOL4wis8ZBpTI4EAACnixAa40WjKhqbIMq5CKUAAAAUxsBAAAAACiOUAgAAUBihFAAAgMIIpQAAABRGKAUAAKAwQikAAACFEUoBAAAojFAKAABAYYRSAAAACiOUAgAAUBihFAAAgMIIpQAAABRGKAUAAKAwQikAAACFEUoBAAAojFAKAABAYYRSAAAACiOUAgAAUBihFAAAgMIIpQAAABRGKAUAAKAwQikAAACFEUoBAAAojFAKAABAYYRSAAAACiOUAgAAUBihFAAAgMIIpQAAABRGKAUAAKAwQikAAACFEUoBAAAojFAKAABAYYRSAAAACiOUAgAAUBihFAAAgMIIpQAAABRGKAUAAKAwQikAAACFEUoBAAAojFAKAABAYYRSAAAACiOUAgAAUBihFAAAgMIIpQAAABRGKAUAAKAwQikAAACFEUoBAAAojFAKAABAYYRSAAAACiOUAgAAUBihFAAAgMIIpQAAABRGKAUAAKAwQikAAACFEUoBAAAojFAKAABAYYRSAAAACiOUAgAAUBihFAAAgMIIpQAAABRGKAUAAKAwQikAAACFEUoBAAAojFAKAABAYYRSAAAACiOUAgAAUBihFAAAgMIIpQAAABRGKAUAAKAwQikAAACFEUoBAAAojFAKAABAYYRSAAAACiOUAgAAUBihFAAAgMIIpQAAABRGKAUAAKAwQikAAACFEUoBAAAoSEr/Pw8GmELE1Tx1AAAAAElFTkSuQmCC" vertex="1" parent="1">
          <mxGeometry x="300" y="100" width="135.61" height="100" as="geometry" />
        </mxCell>
        <mxCell id="s9WUBPOVfU3_w5bNLyG0-3" value="" style="endArrow=classic;html=1;rounded=0;exitX=1;exitY=0.5;exitDx=0;exitDy=0;" edge="1" parent="1" source="s9WUBPOVfU3_w5bNLyG0-2">
          <mxGeometry width="50" height="50" relative="1" as="geometry">
            <mxPoint x="400" y="290" as="sourcePoint" />
            <mxPoint x="600" y="150" as="targetPoint" />
          </mxGeometry>
        </mxCell>
        <mxCell id="s9WUBPOVfU3_w5bNLyG0-4" value="" style="group" vertex="1" connectable="0" parent="1">
          <mxGeometry x="440" y="170" width="150" height="21.52000000000001" as="geometry" />
        </mxCell>
        <mxCell id="s9WUBPOVfU3_w5bNLyG0-5" value="2" style="ellipse;whiteSpace=wrap;html=1;aspect=fixed;strokeColor=#d79b00;fillColor=#ffe6cc;" vertex="1" parent="s9WUBPOVfU3_w5bNLyG0-4">
          <mxGeometry width="20" height="20" as="geometry" />
        </mxCell>
        <mxCell id="s9WUBPOVfU3_w5bNLyG0-6" value="Preview" style="text;html=1;strokeColor=none;fillColor=none;align=center;verticalAlign=middle;whiteSpace=wrap;rounded=0;" vertex="1" parent="s9WUBPOVfU3_w5bNLyG0-4">
          <mxGeometry x="30" width="120" height="21.52" as="geometry" />
        </mxCell>
      </root>
    </mxGraphModel>
  </diagram>
</mxfile>
